<?xml version="1.0" encoding="utf-8"?>
<!-- Generator: Adobe Illustrator 19.0.0, SVG Export Plug-In . SVG Version: 6.00 Build 0)  -->
<svg version="1.1" id="圖層_1" xmlns="http://www.w3.org/2000/svg" xmlns:xlink="http://www.w3.org/1999/xlink" x="0px" y="0px"
	 viewBox="-229 31 408 354.1" style="enable-background:new -229 31 408 354.1;" xml:space="preserve">
<style type="text/css">
	.st0{fill:#FFFFFF;}
</style>
<path class="st0" d="M-24,62.9c47.2,0,52.8,0.2,71.4,1.1c47.9,2.2,70.3,24.9,72.5,72.5c0.8,18.7,1,24.3,1,71.4
	c0,47.2-0.2,52.8-1,71.4c-2.2,47.5-24.5,70.3-72.5,72.5c-18.7,0.8-24.3,1.1-71.4,1.1c-47.2,0-52.8-0.2-71.4-1.1
	c-48-2.3-70.3-25.1-72.5-72.5c-0.8-18.6-1.1-24.2-1.1-71.4s0.2-52.7,1.1-71.4c2.2-47.5,24.5-70.3,72.5-72.5
	C-76.8,63-71.2,62.9-24,62.9z M-24,31c-48,0-54,0.2-72.9,1.1c-64.2,3-99.8,38.5-102.8,102.8c-0.8,18.9-1.1,24.9-1.1,72.9
	s0.2,54,1.1,72.9c3,64.2,38.5,99.8,102.8,102.8c18.9,0.8,24.9,1.1,72.9,1.1s54-0.2,72.9-1.1c64.1-3,99.9-38.5,102.8-102.8
	c0.8-18.9,1.1-24.9,1.1-72.9s-0.2-54-1.1-72.9C148.8,70.7,113.1,35,48.9,32.1C30,31.2,24,31-24,31z M-24,117
	c-50.1,0-90.8,40.7-90.8,90.8s40.7,90.8,90.8,90.8s90.8-40.7,90.8-90.8S26.1,117-24,117z M-24,266.6c-32.5,0-58.9-26.4-58.9-58.9
	s26.4-58.9,58.9-58.9s58.9,26.4,58.9,58.9S8.5,266.6-24,266.6z M70.4,92.2c-11.7,0-21.2,9.5-21.2,21.2s9.5,21.2,21.2,21.2
	s21.2-9.5,21.2-21.2S82,92.2,70.4,92.2z"/>
</svg>
