<?xml version="1.0" encoding="utf-8"?>
<!-- Generator: Adobe Illustrator 24.0.0, SVG Export Plug-In . SVG Version: 6.00 Build 0)  -->
<svg version="1.1" id="Logo" xmlns="http://www.w3.org/2000/svg" xmlns:xlink="http://www.w3.org/1999/xlink" x="0px" y="0px"
	 viewBox="0 0 500 414.34" style="enable-background:new 0 0 500 414.34;" xml:space="preserve">
<style type="text/css">
	.st0{fill:#F51928;}
</style>
<path class="st0" d="M399.7,392.58v15.73l-5.13,6.03h-32.89l-4.75-5.61h28.81l2.56-3.01v-7.55h-30.41v-15.82l5.13-6.03h37.64
	l-4.75,5.59h-24.04l-2.57,3.02v7.64H399.7z M355.03,414.34l-15.21-17.9h10.46v-18.22c0-1.05-0.85-1.9-1.9-1.9h-39.92v38.02h11.4
	v-32.42h17.74c0.7,0,1.27,0.57,1.27,1.27v7.66h-17.4l19.96,23.49H355.03z M298.75,408.75h-26.61v-10.57h28.72v-5.59h-28.72v-10.66
	h26.61l4.75-5.59h-42.77v38.02h42.77L298.75,408.75z M149.54,394.22h-11.4v14.53h-19.01v-26.83h26.61l4.75-5.59h-42.77v38.02h41.82
	V394.22z M198.96,378.22c0-1.05-0.85-1.9-1.9-1.9h-39.92v38.02h11.4v-16.17h19.01v16.17h11.4V378.22z M168.55,381.92h17.74
	c0.7,0,1.27,0.57,1.27,1.27v9.39h-19.01V381.92z M206.56,414.34h11.4v-21.76l11.88,7.23l11.88-7.23v21.76h11.4v-38.02l-23.28,14.52
	l-23.28-14.52V414.34z M69.12,353.97l-12.34-14.53h12.34v-21.59c0-1.05-0.85-1.9-1.9-1.9H23.51v24.55l11.4,13.46v-32.42h21.54
	c0.7,0,1.27,0.57,1.27,1.27v11.03H39.47l29.66,34.91V353.97z M114.74,348.38H88.13v-10.57h28.72v-5.59H88.13v-10.66h26.61l4.75-5.59
	H76.73v38.02h42.77L114.74,348.38z M135.86,339.44h30.41v-21.59c0-1.05-0.85-1.9-1.9-1.9h-39.92v38.02h11.4V339.44z M135.86,321.55
	h17.74c0.7,0,1.27,0.57,1.27,1.27v11.03h-19.01V321.55z M215.7,315.96h-11.4v32.42h-19.01v-32.42h-11.4v38.02h41.82V315.96z
	 M265.1,353.97v-23.51h-3.8v-12.61c0-1.05-0.85-1.9-1.9-1.9h-36.11v38.02H265.1z M234.69,321.55h17.74c0.7,0,1.27,0.57,1.27,1.27
	v7.65h-19.01V321.55z M234.69,336.06h19.01v12.32h-19.01V336.06z M307.88,348.38h-23.76v-32.42h-11.4v38.02h30.41L307.88,348.38z
	 M310.73,315.96v38.02h11.4v-38.02H310.73z M372.51,348.38h-31.36v-26.83h26.61l4.75-5.59h-42.77v38.02h38.02L372.51,348.38z
	 M434.49,317.86c0-1.05-0.85-1.9-1.9-1.9h-39.92v27.27l9.33,10.75h32.48V317.86z M423.09,322.82v25.56H410.4l-6.32-7.28v-19.55
	h17.74C422.52,321.55,423.09,322.12,423.09,322.82z M453.5,336.07h25.66l4.75-5.59H453.5v-8.93h26.61l4.75-5.59H442.1v38.02h11.4
	V336.07z M0,118.44c0,0,16.8,46.41,32.24,61.84c15.59,15.59,70.39,30.24,70.39,30.24L0,118.44z M446.83,0
	C407.89,0,350,7.89,306.91,26.64c-35.77,15.57-140.85,122.66-147.7,129.3c-10.53,10.2-13.16,12.5-28.29,7.21
	c-23.96-7.8-61.41-28.87-61.41-28.87s40.87,64.1,55.16,83.47c22.06,29.93,59.86,45.39,59.86,45.39s-27.98-30.42-35.18-43.75
	c-6.58-12.17,1.68-22.82,41.12-53.29c65.13-50.33,122.61-91.32,179.93-121.38C424.34,16.45,454.93,8.9,477.96,0
	C472.23,0,459.94,0,446.83,0z M374.45,81.37c-90.08,44.95-209.32,129.16-209.32,129.16c34.21,21.71,120.72,52.65,181.25,52.63
	c67.43,0,131.59-168.75,131.58-168.75c-116.45,47.72-193.42,88.84-193.42,88.84l122.29-37.41c0,0-38.41,87.62-82.92,87.62
	c-51.47,0-111.42-24.21-111.41-24.21c103.62-70.7,262.95-134.85,271.8-138.85c8.53-3.86,15.7-18.73,15.7-25.6
	C495.45,44.78,434.33,51.49,374.45,81.37z"/>
</svg>
